<svg xmlns="http://www.w3.org/2000/svg" viewBox="0 0 24 24" fill="none" stroke="#2563eb" stroke-width="2" stroke-linecap="round" stroke-linejoin="round">
  <path d="M6 18H4a2 2 0 0 1-2-2v-5a2 2 0 0 1 2-2h16a2 2 0 0 1 2 2v5a2 2 0 0 1-2 2h-2" />
  <path d="M6 9V4a2 2 0 0 1 2-2h8a2 2 0 0 1 2 2v5" />
  <rect x="6" y="14" width="12" height="8" rx="1" fill="#111827" stroke="#0ea5e9" stroke-width="2"/>
  <line x1="9" y1="17" x2="15" y2="17" stroke="#2563eb" stroke-width="1.5" />
  <line x1="9" y1="20" x2="13" y2="20" stroke="#2563eb" stroke-width="1.5" />
</svg>